<svg width="379" height="511" viewBox="0 0 379 511" fill="none" xmlns="http://www.w3.org/2000/svg">
<path d="M279.071 424.33C271.782 432.002 268.917 433.016 265.87 430.12C269.855 414.607 270.872 406.023 271.935 390.077C272.998 390.077 277.522 390.954 281.102 391.516C281.594 403.917 282.435 410.688 279.071 424.33Z" stroke="black" stroke-width="1.96665"/>
<path d="M299.008 422.188C298.169 422.188 297.421 422.044 296.764 421.756C296.111 421.467 295.592 421.067 295.206 420.554C294.825 420.037 294.617 419.437 294.583 418.755H296.185C296.219 419.174 296.363 419.537 296.618 419.842C296.872 420.143 297.205 420.376 297.616 420.541C298.027 420.707 298.482 420.789 298.983 420.789C299.542 420.789 300.038 420.692 300.47 420.497C300.902 420.302 301.241 420.031 301.487 419.683C301.733 419.336 301.856 418.933 301.856 418.475C301.856 417.996 301.737 417.575 301.5 417.21C301.263 416.841 300.915 416.553 300.457 416.346C300 416.138 299.44 416.034 298.779 416.034H297.737V414.635H298.779C299.296 414.635 299.75 414.542 300.14 414.356C300.534 414.169 300.841 413.907 301.061 413.567C301.286 413.228 301.398 412.83 301.398 412.372C301.398 411.932 301.301 411.548 301.106 411.222C300.911 410.895 300.635 410.641 300.279 410.459C299.928 410.277 299.512 410.185 299.033 410.185C298.584 410.185 298.16 410.268 297.762 410.433C297.368 410.594 297.046 410.83 296.796 411.139C296.546 411.444 296.41 411.813 296.389 412.245H294.863C294.889 411.563 295.094 410.965 295.48 410.452C295.865 409.935 296.37 409.533 296.993 409.245C297.62 408.956 298.309 408.812 299.059 408.812C299.864 408.812 300.555 408.975 301.131 409.302C301.708 409.624 302.151 410.05 302.46 410.58C302.769 411.109 302.924 411.682 302.924 412.296C302.924 413.029 302.731 413.654 302.346 414.171C301.964 414.688 301.445 415.047 300.788 415.246V415.347C301.61 415.483 302.252 415.833 302.714 416.396C303.176 416.956 303.407 417.649 303.407 418.475C303.407 419.183 303.214 419.819 302.829 420.382C302.447 420.942 301.926 421.383 301.265 421.705C300.604 422.027 299.851 422.188 299.008 422.188ZM310.254 422.188C309.296 422.188 308.48 421.927 307.806 421.406C307.132 420.88 306.618 420.12 306.262 419.124C305.906 418.123 305.728 416.916 305.728 415.5C305.728 414.093 305.906 412.891 306.262 411.896C306.622 410.895 307.139 410.132 307.813 409.607C308.491 409.077 309.304 408.812 310.254 408.812C311.203 408.812 312.015 409.077 312.689 409.607C313.367 410.132 313.884 410.895 314.24 411.896C314.6 412.891 314.78 414.093 314.78 415.5C314.78 416.916 314.602 418.123 314.246 419.124C313.89 420.12 313.375 420.88 312.701 421.406C312.027 421.927 311.212 422.188 310.254 422.188ZM310.254 420.789C311.203 420.789 311.941 420.332 312.466 419.416C312.992 418.501 313.254 417.195 313.254 415.5C313.254 414.373 313.134 413.413 312.892 412.62C312.655 411.828 312.311 411.224 311.862 410.808C311.417 410.393 310.881 410.185 310.254 410.185C309.313 410.185 308.578 410.65 308.048 411.578C307.518 412.502 307.253 413.809 307.253 415.5C307.253 416.627 307.372 417.585 307.609 418.373C307.847 419.162 308.188 419.761 308.633 420.173C309.082 420.584 309.622 420.789 310.254 420.789ZM321.595 422.188C320.756 422.188 320.008 422.044 319.351 421.756C318.698 421.467 318.179 421.067 317.793 420.554C317.412 420.037 317.204 419.437 317.17 418.755H318.772C318.806 419.174 318.95 419.537 319.205 419.842C319.459 420.143 319.792 420.376 320.203 420.541C320.614 420.707 321.069 420.789 321.57 420.789C322.129 420.789 322.625 420.692 323.057 420.497C323.489 420.302 323.829 420.031 324.074 419.683C324.32 419.336 324.443 418.933 324.443 418.475C324.443 417.996 324.324 417.575 324.087 417.21C323.85 416.841 323.502 416.553 323.044 416.346C322.587 416.138 322.027 416.034 321.366 416.034H320.324V414.635H321.366C321.883 414.635 322.337 414.542 322.727 414.356C323.121 414.169 323.428 413.907 323.648 413.567C323.873 413.228 323.985 412.83 323.985 412.372C323.985 411.932 323.888 411.548 323.693 411.222C323.498 410.895 323.222 410.641 322.866 410.459C322.515 410.277 322.099 410.185 321.62 410.185C321.171 410.185 320.747 410.268 320.349 410.433C319.955 410.594 319.633 410.83 319.383 411.139C319.133 411.444 318.997 411.813 318.976 412.245H317.45C317.476 411.563 317.681 410.965 318.067 410.452C318.452 409.935 318.957 409.533 319.58 409.245C320.207 408.956 320.896 408.812 321.646 408.812C322.451 408.812 323.142 408.975 323.718 409.302C324.295 409.624 324.738 410.05 325.047 410.58C325.356 411.109 325.511 411.682 325.511 412.296C325.511 413.029 325.318 413.654 324.933 414.171C324.551 414.688 324.032 415.047 323.375 415.246V415.347C324.197 415.483 324.839 415.833 325.301 416.396C325.763 416.956 325.994 417.649 325.994 418.475C325.994 419.183 325.801 419.819 325.416 420.382C325.034 420.942 324.513 421.383 323.852 421.705C323.191 422.027 322.438 422.188 321.595 422.188Z" fill="black"/>
<path d="M246.577 453.918C242.393 453.795 240.64 445.32 240.485 427.225V389.586C252.767 389.777 271.986 389.014 271.935 390.077C271.157 406.454 269.907 414.857 265.87 430.12C261.809 447.493 250.709 454.04 246.577 453.918Z" stroke="black" stroke-width="1.96665"/>
<path d="M271.173 490.706C270.333 490.706 269.585 490.562 268.928 490.273C268.276 489.985 267.757 489.585 267.371 489.072C266.99 488.555 266.782 487.955 266.748 487.273H268.35C268.384 487.692 268.528 488.055 268.782 488.36C269.037 488.661 269.369 488.894 269.78 489.059C270.191 489.224 270.647 489.307 271.147 489.307C271.707 489.307 272.202 489.21 272.635 489.015C273.067 488.82 273.406 488.548 273.652 488.201C273.898 487.853 274.021 487.451 274.021 486.993C274.021 486.514 273.902 486.092 273.665 485.728C273.427 485.359 273.08 485.071 272.622 484.863C272.164 484.656 271.605 484.552 270.944 484.552H269.901V483.153H270.944C271.461 483.153 271.914 483.06 272.304 482.874C272.698 482.687 273.006 482.424 273.226 482.085C273.451 481.746 273.563 481.348 273.563 480.89C273.563 480.449 273.465 480.066 273.27 479.74C273.075 479.413 272.8 479.159 272.444 478.977C272.092 478.794 271.677 478.703 271.198 478.703C270.749 478.703 270.325 478.786 269.927 478.951C269.532 479.112 269.21 479.347 268.96 479.657C268.71 479.962 268.575 480.331 268.553 480.763H267.028C267.053 480.081 267.259 479.483 267.644 478.97C268.03 478.453 268.534 478.051 269.157 477.762C269.785 477.474 270.473 477.33 271.223 477.33C272.029 477.33 272.719 477.493 273.296 477.82C273.872 478.142 274.315 478.568 274.624 479.097C274.934 479.627 275.089 480.199 275.089 480.814C275.089 481.547 274.896 482.172 274.51 482.689C274.129 483.206 273.609 483.564 272.953 483.764V483.865C273.775 484.001 274.417 484.351 274.879 484.914C275.341 485.474 275.572 486.167 275.572 486.993C275.572 487.701 275.379 488.337 274.993 488.9C274.612 489.46 274.09 489.9 273.429 490.222C272.768 490.545 272.016 490.706 271.173 490.706ZM282.418 490.706C281.461 490.706 280.645 490.445 279.971 489.924C279.297 489.398 278.782 488.637 278.426 487.641C278.07 486.641 277.892 485.433 277.892 484.018C277.892 482.611 278.07 481.409 278.426 480.413C278.786 479.413 279.303 478.65 279.977 478.125C280.655 477.595 281.469 477.33 282.418 477.33C283.368 477.33 284.179 477.595 284.853 478.125C285.531 478.65 286.048 479.413 286.404 480.413C286.765 481.409 286.945 482.611 286.945 484.018C286.945 485.433 286.767 486.641 286.411 487.641C286.055 488.637 285.54 489.398 284.866 489.924C284.192 490.445 283.376 490.706 282.418 490.706ZM282.418 489.307C283.368 489.307 284.105 488.849 284.631 487.934C285.156 487.018 285.419 485.713 285.419 484.018C285.419 482.891 285.298 481.931 285.057 481.138C284.819 480.346 284.476 479.742 284.027 479.326C283.582 478.911 283.046 478.703 282.418 478.703C281.478 478.703 280.742 479.167 280.212 480.096C279.683 481.019 279.418 482.327 279.418 484.018C279.418 485.145 279.536 486.103 279.774 486.891C280.011 487.68 280.352 488.279 280.797 488.69C281.247 489.102 281.787 489.307 282.418 489.307ZM289.36 490.528V489.383L293.658 484.679C294.162 484.128 294.578 483.649 294.904 483.242C295.23 482.831 295.472 482.446 295.629 482.085C295.79 481.721 295.87 481.339 295.87 480.941C295.87 480.483 295.76 480.087 295.54 479.752C295.323 479.417 295.027 479.159 294.65 478.977C294.272 478.794 293.849 478.703 293.378 478.703C292.878 478.703 292.442 478.807 292.069 479.015C291.7 479.218 291.414 479.504 291.21 479.873C291.011 480.242 290.912 480.674 290.912 481.17H289.411C289.411 480.407 289.587 479.737 289.939 479.161C290.291 478.585 290.77 478.135 291.376 477.813C291.986 477.491 292.67 477.33 293.429 477.33C294.192 477.33 294.868 477.491 295.457 477.813C296.046 478.135 296.508 478.57 296.843 479.117C297.178 479.663 297.345 480.271 297.345 480.941C297.345 481.42 297.258 481.888 297.084 482.346C296.915 482.799 296.618 483.306 296.194 483.865C295.775 484.421 295.192 485.099 294.446 485.9L291.522 489.027V489.129H297.574V490.528H289.36Z" fill="black"/>
<path d="M204.945 461.515C197.391 460.244 196.243 442.253 196.932 421.434V389.586H240.485V427.225C238.422 439.507 234.496 454.321 228.718 458.963C223.223 461.515 221.55 457.872 216.115 458.578C212.878 458.999 210.022 461.515 204.945 461.515Z" stroke="black" stroke-width="1.96665"/>
<path d="M213.361 506.056C212.521 506.056 211.773 505.912 211.117 505.623C210.464 505.335 209.945 504.935 209.559 504.422C209.178 503.905 208.97 503.305 208.936 502.623H210.538C210.572 503.042 210.716 503.405 210.97 503.71C211.225 504.011 211.557 504.244 211.968 504.409C212.379 504.574 212.835 504.657 213.335 504.657C213.895 504.657 214.39 504.56 214.823 504.365C215.255 504.17 215.594 503.899 215.84 503.551C216.086 503.203 216.209 502.801 216.209 502.343C216.209 501.864 216.09 501.443 215.853 501.078C215.615 500.709 215.268 500.421 214.81 500.213C214.352 500.006 213.793 499.902 213.132 499.902H212.089V498.503H213.132C213.649 498.503 214.102 498.41 214.492 498.224C214.886 498.037 215.194 497.774 215.414 497.435C215.639 497.096 215.751 496.698 215.751 496.24C215.751 495.799 215.653 495.416 215.458 495.09C215.264 494.763 214.988 494.509 214.632 494.327C214.28 494.144 213.865 494.053 213.386 494.053C212.937 494.053 212.513 494.136 212.115 494.301C211.72 494.462 211.398 494.698 211.148 495.007C210.898 495.312 210.763 495.681 210.741 496.113H209.216C209.241 495.431 209.447 494.833 209.832 494.32C210.218 493.803 210.722 493.401 211.345 493.113C211.973 492.824 212.661 492.68 213.411 492.68C214.217 492.68 214.908 492.843 215.484 493.17C216.06 493.492 216.503 493.918 216.813 494.448C217.122 494.977 217.277 495.549 217.277 496.164C217.277 496.897 217.084 497.522 216.698 498.039C216.317 498.556 215.798 498.914 215.141 499.114V499.215C215.963 499.351 216.605 499.701 217.067 500.264C217.529 500.824 217.76 501.517 217.76 502.343C217.76 503.051 217.567 503.687 217.181 504.25C216.8 504.81 216.279 505.25 215.617 505.573C214.956 505.895 214.204 506.056 213.361 506.056ZM224.606 506.056C223.649 506.056 222.833 505.795 222.159 505.274C221.485 504.748 220.97 503.988 220.614 502.992C220.258 501.991 220.08 500.784 220.08 499.368C220.08 497.961 220.258 496.759 220.614 495.763C220.974 494.763 221.491 494 222.165 493.475C222.843 492.945 223.657 492.68 224.606 492.68C225.556 492.68 226.367 492.945 227.041 493.475C227.719 494 228.236 494.763 228.592 495.763C228.953 496.759 229.133 497.961 229.133 499.368C229.133 500.784 228.955 501.991 228.599 502.992C228.243 503.988 227.728 504.748 227.054 505.274C226.38 505.795 225.564 506.056 224.606 506.056ZM224.606 504.657C225.556 504.657 226.293 504.199 226.819 503.284C227.344 502.369 227.607 501.063 227.607 499.368C227.607 498.241 227.486 497.281 227.245 496.488C227.007 495.696 226.664 495.092 226.215 494.676C225.77 494.261 225.234 494.053 224.606 494.053C223.666 494.053 222.93 494.517 222.4 495.446C221.871 496.37 221.606 497.677 221.606 499.368C221.606 500.495 221.725 501.453 221.962 502.241C222.199 503.03 222.54 503.629 222.985 504.04C223.435 504.452 223.975 504.657 224.606 504.657ZM236.126 492.858V505.878H234.549V494.511H234.473L231.294 496.622V495.02L234.549 492.858H236.126Z" fill="black"/>
<path d="M150.222 421.434C150.222 416.609 150.034 403.188 150.222 389.586H196.932V421.434C195.916 436.876 190.086 454.428 185.401 458.963C182.085 462.173 178.654 459.707 173.577 458.963C169.044 458.299 163.026 458.846 159.361 454.693C155.012 449.766 152.253 434.946 150.222 421.434Z" stroke="black" stroke-width="1.96665"/>
<path d="M150.727 503.539V502.242L156.448 493.19H157.389V495.199H156.753L152.431 502.039V502.141H160.135V503.539H150.727ZM156.855 506.209V503.145V502.541V493.19H158.355V506.209H156.855ZM166.764 506.387C165.807 506.387 164.991 506.127 164.317 505.605C163.643 505.08 163.128 504.319 162.772 503.323C162.416 502.323 162.238 501.115 162.238 499.7C162.238 498.293 162.416 497.091 162.772 496.095C163.132 495.095 163.649 494.332 164.323 493.807C165.001 493.277 165.815 493.012 166.764 493.012C167.714 493.012 168.525 493.277 169.199 493.807C169.877 494.332 170.394 495.095 170.75 496.095C171.111 497.091 171.291 498.293 171.291 499.7C171.291 501.115 171.113 502.323 170.757 503.323C170.401 504.319 169.886 505.08 169.212 505.605C168.538 506.127 167.722 506.387 166.764 506.387ZM166.764 504.989C167.714 504.989 168.451 504.531 168.977 503.616C169.502 502.7 169.765 501.395 169.765 499.7C169.765 498.572 169.644 497.612 169.403 496.82C169.165 496.027 168.822 495.423 168.373 495.008C167.928 494.593 167.392 494.385 166.764 494.385C165.824 494.385 165.088 494.849 164.558 495.777C164.029 496.701 163.764 498.009 163.764 499.7C163.764 500.827 163.882 501.785 164.12 502.573C164.357 503.361 164.698 503.961 165.143 504.372C165.593 504.783 166.133 504.989 166.764 504.989ZM178.284 493.19V506.209H176.707V494.843H176.631L173.452 496.953V495.351L176.707 493.19H178.284Z" fill="black"/>
<path d="M150.223 389.586C135.026 388.82 112.504 389.49 112.477 391.14C112.099 415.038 115.118 430.13 122.019 440.737C126.375 447.431 136.343 455.263 140.973 453.283C146.121 451.082 149.215 431.086 150.223 421.434C150.727 416.609 150.034 403.188 150.223 389.586Z" stroke="black" stroke-width="1.96665"/>
<path d="M97.3449 487.858V486.561L103.066 477.508H104.007V479.517H103.372L99.0487 486.357V486.459H106.754V487.858H97.3449ZM103.473 490.528V487.463V486.86V477.508H104.974V490.528H103.473ZM113.382 490.706C112.425 490.706 111.609 490.445 110.935 489.924C110.261 489.398 109.746 488.637 109.39 487.641C109.034 486.641 108.856 485.433 108.856 484.018C108.856 482.611 109.034 481.409 109.39 480.413C109.75 479.413 110.267 478.65 110.941 478.125C111.619 477.595 112.433 477.33 113.382 477.33C114.332 477.33 115.143 477.595 115.817 478.125C116.495 478.65 117.012 479.413 117.368 480.413C117.729 481.409 117.909 482.611 117.909 484.018C117.909 485.433 117.731 486.641 117.375 487.641C117.019 488.637 116.504 489.398 115.83 489.924C115.156 490.445 114.34 490.706 113.382 490.706ZM113.382 489.307C114.332 489.307 115.069 488.849 115.595 487.934C116.12 487.018 116.383 485.713 116.383 484.018C116.383 482.891 116.262 481.931 116.021 481.138C115.783 480.346 115.44 479.742 114.991 479.326C114.546 478.911 114.01 478.703 113.382 478.703C112.442 478.703 111.706 479.167 111.177 480.096C110.647 481.019 110.382 482.327 110.382 484.018C110.382 485.145 110.501 486.103 110.738 486.891C110.975 487.68 111.316 488.279 111.761 488.69C112.211 489.102 112.751 489.307 113.382 489.307ZM120.325 490.528V489.383L124.622 484.679C125.126 484.128 125.542 483.649 125.868 483.242C126.194 482.831 126.436 482.446 126.593 482.085C126.754 481.721 126.834 481.339 126.834 480.941C126.834 480.483 126.724 480.087 126.504 479.752C126.288 479.417 125.991 479.159 125.614 478.977C125.237 478.794 124.813 478.703 124.342 478.703C123.842 478.703 123.406 478.807 123.033 479.015C122.664 479.218 122.378 479.504 122.174 479.873C121.975 480.242 121.876 480.674 121.876 481.17H120.375C120.375 480.407 120.551 479.737 120.903 479.161C121.255 478.585 121.734 478.135 122.34 477.813C122.95 477.491 123.634 477.33 124.393 477.33C125.156 477.33 125.832 477.491 126.421 477.813C127.01 478.135 127.472 478.57 127.807 479.117C128.142 479.663 128.309 480.271 128.309 480.941C128.309 481.42 128.222 481.888 128.048 482.346C127.879 482.799 127.582 483.306 127.158 483.865C126.739 484.421 126.156 485.099 125.41 485.9L122.486 489.027V489.129H128.538V490.528H120.325Z" fill="black"/>
<path d="M107.464 424.33C104.205 410.992 104.498 404.436 104.418 392.481C107.434 391.311 112.512 389.712 112.477 391.14C111.906 414.735 116.856 430.696 117.619 432.35C115.754 432.546 110.511 431.086 107.464 424.33Z" stroke="black" stroke-width="1.96665"/>
<path d="M65.2272 419.34V418.043L70.9487 408.99H71.8895V410.999H71.2538L66.9309 417.839V417.941H74.6358V419.34H65.2272ZM71.3555 422.01V418.946V418.342V408.99H72.8558V422.01H71.3555ZM81.2648 422.188C80.3069 422.188 79.4911 421.927 78.8172 421.406C78.1434 420.88 77.6285 420.12 77.2725 419.124C76.9165 418.123 76.7385 416.916 76.7385 415.5C76.7385 414.093 76.9165 412.891 77.2725 411.896C77.6327 410.895 78.1497 410.132 78.8236 409.607C79.5017 409.077 80.3154 408.812 81.2648 408.812C82.2141 408.812 83.0257 409.077 83.6996 409.607C84.3777 410.132 84.8947 410.895 85.2507 411.896C85.6109 412.891 85.7911 414.093 85.7911 415.5C85.7911 416.916 85.6131 418.123 85.2571 419.124C84.9011 420.12 84.3861 420.88 83.7123 421.406C83.0384 421.927 82.2226 422.188 81.2648 422.188ZM81.2648 420.789C82.2141 420.789 82.9515 420.332 83.4771 419.416C84.0026 418.501 84.2653 417.195 84.2653 415.5C84.2653 414.373 84.1446 413.413 83.903 412.62C83.6657 411.828 83.3224 411.224 82.8731 410.808C82.4281 410.393 81.892 410.185 81.2648 410.185C80.3239 410.185 79.5886 410.65 79.0588 411.578C78.5291 412.502 78.2642 413.809 78.2642 415.5C78.2642 416.627 78.3828 417.585 78.6202 418.373C78.8575 419.162 79.1987 419.761 79.6437 420.173C80.0929 420.584 80.6333 420.789 81.2648 420.789ZM92.606 422.188C91.7668 422.188 91.0188 422.044 90.3619 421.756C89.7092 421.467 89.19 421.067 88.8044 420.554C88.4229 420.037 88.2153 419.437 88.1814 418.755H89.7834C89.8173 419.174 89.9614 419.537 90.2157 419.842C90.4699 420.143 90.8026 420.376 91.2137 420.541C91.6248 420.707 92.0804 420.789 92.5805 420.789C93.14 420.789 93.6358 420.692 94.0681 420.497C94.5004 420.302 94.8394 420.031 95.0852 419.683C95.3311 419.336 95.454 418.933 95.454 418.475C95.454 417.996 95.3353 417.575 95.098 417.21C94.8606 416.841 94.5131 416.553 94.0554 416.346C93.5977 416.138 93.0382 416.034 92.3771 416.034H91.3345V414.635H92.3771C92.8941 414.635 93.3476 414.542 93.7375 414.356C94.1317 414.169 94.4389 413.907 94.6593 413.567C94.8839 413.228 94.9962 412.83 94.9962 412.372C94.9962 411.932 94.8988 411.548 94.7038 411.222C94.5089 410.895 94.2334 410.641 93.8774 410.459C93.5256 410.277 93.1103 410.185 92.6314 410.185C92.1821 410.185 91.7583 410.268 91.3599 410.433C90.9658 410.594 90.6437 410.83 90.3937 411.139C90.1436 411.444 90.008 411.813 89.9868 412.245H88.4611C88.4865 411.563 88.6921 410.965 89.0777 410.452C89.4634 409.935 89.9677 409.533 90.5907 409.245C91.218 408.956 91.9067 408.812 92.6568 408.812C93.4621 408.812 94.1529 408.975 94.7292 409.302C95.3056 409.624 95.7485 410.05 96.0579 410.58C96.3673 411.109 96.522 411.682 96.522 412.296C96.522 413.029 96.3291 413.654 95.9435 414.171C95.562 414.688 95.0429 415.047 94.386 415.246V415.347C95.2082 415.483 95.8502 415.833 96.3122 416.396C96.7741 416.956 97.0051 417.649 97.0051 418.475C97.0051 419.183 96.8123 419.819 96.4266 420.382C96.0452 420.942 95.5239 421.383 94.8627 421.705C94.2016 422.027 93.4493 422.188 92.606 422.188Z" fill="black"/>
<path d="M191.745 486.349C165.471 486.163 121.68 481.272 107.464 424.33C110.511 431.086 115.754 432.546 117.619 432.35C119.771 436.832 120.735 438.675 122.019 440.737C126.374 447.431 136.343 455.263 140.973 453.283C146.121 451.082 149.214 431.086 150.222 421.434C152.079 434.492 155.012 449.766 159.361 454.693C163.027 458.846 169.044 458.299 173.577 458.963C178.654 459.707 182.085 462.173 185.401 458.963C190.086 454.428 195.837 438.269 196.932 421.434C196.243 442.253 197.39 460.244 204.945 461.515C210.022 461.515 212.878 458.999 216.115 458.578C221.549 457.872 223.223 461.515 228.718 458.963C234.496 454.321 238.422 439.507 240.485 427.225C240.64 445.32 242.393 453.795 246.577 453.918C250.709 454.04 261.809 447.493 265.87 430.12C268.917 433.016 271.782 432.002 279.071 424.33C266.886 481.272 217.755 486.533 191.745 486.349Z" fill="#D9D9D9" stroke="black" stroke-width="1.96665"/>
<path d="M281.485 323.715C273.8 315.205 270.779 314.08 267.567 317.292C271.768 334.501 272.966 345.056 274.061 361.375C277.251 361.375 279.891 360.607 283.626 360.116C284.145 346.359 285.032 338.848 281.485 323.715Z" stroke="black" stroke-width="2.14118"/>
<path d="M292.468 347.068V345.924L296.765 341.22C297.269 340.669 297.685 340.19 298.011 339.783C298.337 339.372 298.579 338.986 298.736 338.626C298.897 338.262 298.977 337.88 298.977 337.482C298.977 337.024 298.867 336.628 298.647 336.293C298.431 335.958 298.134 335.7 297.757 335.517C297.38 335.335 296.956 335.244 296.485 335.244C295.985 335.244 295.549 335.348 295.176 335.556C294.807 335.759 294.521 336.045 294.318 336.414C294.118 336.782 294.019 337.215 294.019 337.711H292.518C292.518 336.948 292.694 336.278 293.046 335.702C293.398 335.125 293.877 334.676 294.483 334.354C295.093 334.032 295.778 333.871 296.536 333.871C297.299 333.871 297.975 334.032 298.564 334.354C299.153 334.676 299.615 335.111 299.95 335.657C300.285 336.204 300.452 336.812 300.452 337.482C300.452 337.961 300.365 338.429 300.192 338.887C300.022 339.34 299.725 339.847 299.302 340.406C298.882 340.961 298.299 341.639 297.553 342.44L294.629 345.568V345.67H300.681V347.068H292.468ZM307.553 347.246C306.595 347.246 305.78 346.986 305.106 346.464C304.432 345.939 303.917 345.178 303.561 344.182C303.205 343.182 303.027 341.974 303.027 340.559C303.027 339.152 303.205 337.95 303.561 336.954C303.921 335.954 304.438 335.191 305.112 334.666C305.79 334.136 306.604 333.871 307.553 333.871C308.502 333.871 309.314 334.136 309.988 334.666C310.666 335.191 311.183 335.954 311.539 336.954C311.899 337.95 312.079 339.152 312.079 340.559C312.079 341.974 311.901 343.182 311.545 344.182C311.189 345.178 310.675 345.939 310.001 346.464C309.327 346.986 308.511 347.246 307.553 347.246ZM307.553 345.848C308.502 345.848 309.24 345.39 309.765 344.475C310.291 343.559 310.554 342.254 310.554 340.559C310.554 339.431 310.433 338.471 310.191 337.679C309.954 336.886 309.611 336.282 309.162 335.867C308.717 335.452 308.18 335.244 307.553 335.244C306.612 335.244 305.877 335.708 305.347 336.636C304.817 337.56 304.553 338.868 304.553 340.559C304.553 341.686 304.671 342.644 304.909 343.432C305.146 344.22 305.487 344.82 305.932 345.231C306.381 345.642 306.922 345.848 307.553 345.848ZM318.894 347.246C318.055 347.246 317.307 347.102 316.65 346.814C315.998 346.526 315.478 346.125 315.093 345.613C314.711 345.096 314.504 344.496 314.47 343.813H316.072C316.106 344.233 316.25 344.595 316.504 344.901C316.758 345.201 317.091 345.435 317.502 345.6C317.913 345.765 318.369 345.848 318.869 345.848C319.428 345.848 319.924 345.75 320.357 345.555C320.789 345.36 321.128 345.089 321.374 344.742C321.619 344.394 321.742 343.991 321.742 343.534C321.742 343.055 321.624 342.633 321.386 342.269C321.149 341.9 320.802 341.612 320.344 341.404C319.886 341.196 319.327 341.093 318.665 341.093H317.623V339.694H318.665C319.183 339.694 319.636 339.601 320.026 339.414C320.42 339.228 320.727 338.965 320.948 338.626C321.172 338.287 321.285 337.889 321.285 337.431C321.285 336.99 321.187 336.607 320.992 336.28C320.797 335.954 320.522 335.7 320.166 335.517C319.814 335.335 319.399 335.244 318.92 335.244C318.471 335.244 318.047 335.327 317.648 335.492C317.254 335.653 316.932 335.888 316.682 336.198C316.432 336.503 316.296 336.871 316.275 337.304H314.749C314.775 336.621 314.98 336.024 315.366 335.511C315.752 334.994 316.256 334.591 316.879 334.303C317.506 334.015 318.195 333.871 318.945 333.871C319.75 333.871 320.441 334.034 321.018 334.36C321.594 334.682 322.037 335.108 322.346 335.638C322.656 336.168 322.81 336.74 322.81 337.355C322.81 338.088 322.618 338.713 322.232 339.23C321.85 339.747 321.331 340.105 320.674 340.304V340.406C321.497 340.542 322.139 340.891 322.601 341.455C323.063 342.014 323.294 342.707 323.294 343.534C323.294 344.242 323.101 344.877 322.715 345.441C322.334 346 321.812 346.441 321.151 346.763C320.49 347.085 319.738 347.246 318.894 347.246Z" fill="black"/>
<path d="M247.226 290.893C242.814 291.03 240.966 300.431 240.802 320.504V362.257C253.863 362.257 274.061 362.438 274.061 361.375C273.241 343.208 271.823 334.223 267.567 317.292C263.285 298.021 251.581 290.758 247.226 290.893Z" stroke="black" stroke-width="2.14118"/>
<path d="M273.197 284.974V283.83L277.494 279.125C277.999 278.575 278.414 278.096 278.74 277.689C279.067 277.278 279.308 276.892 279.465 276.532C279.626 276.167 279.707 275.786 279.707 275.387C279.707 274.93 279.597 274.533 279.376 274.199C279.16 273.864 278.863 273.605 278.486 273.423C278.109 273.241 277.685 273.15 277.215 273.15C276.715 273.15 276.278 273.254 275.905 273.461C275.536 273.665 275.25 273.951 275.047 274.319C274.848 274.688 274.748 275.12 274.748 275.616H273.248C273.248 274.853 273.424 274.184 273.775 273.607C274.127 273.031 274.606 272.582 275.212 272.26C275.823 271.938 276.507 271.777 277.266 271.777C278.028 271.777 278.704 271.938 279.294 272.26C279.883 272.582 280.345 273.016 280.679 273.563C281.014 274.11 281.182 274.718 281.182 275.387C281.182 275.866 281.095 276.335 280.921 276.792C280.751 277.246 280.455 277.752 280.031 278.312C279.611 278.867 279.029 279.545 278.283 280.346L275.358 283.474V283.575H281.41V284.974H273.197ZM288.283 285.152C287.325 285.152 286.509 284.891 285.835 284.37C285.161 283.845 284.646 283.084 284.29 282.088C283.934 281.088 283.756 279.88 283.756 278.464C283.756 277.057 283.934 275.856 284.29 274.86C284.65 273.86 285.168 273.097 285.841 272.571C286.52 272.041 287.333 271.777 288.283 271.777C289.232 271.777 290.043 272.041 290.717 272.571C291.395 273.097 291.913 273.86 292.269 274.86C292.629 275.856 292.809 277.057 292.809 278.464C292.809 279.88 292.631 281.088 292.275 282.088C291.919 283.084 291.404 283.845 290.73 284.37C290.056 284.891 289.24 285.152 288.283 285.152ZM288.283 283.753C289.232 283.753 289.969 283.296 290.495 282.38C291.02 281.465 291.283 280.16 291.283 278.464C291.283 277.337 291.162 276.377 290.921 275.585C290.683 274.792 290.34 274.188 289.891 273.773C289.446 273.357 288.91 273.15 288.283 273.15C287.342 273.15 286.606 273.614 286.077 274.542C285.547 275.466 285.282 276.773 285.282 278.464C285.282 279.592 285.401 280.549 285.638 281.338C285.875 282.126 286.216 282.726 286.661 283.137C287.111 283.548 287.651 283.753 288.283 283.753ZM295.225 284.974V283.83L299.522 279.125C300.026 278.575 300.442 278.096 300.768 277.689C301.094 277.278 301.336 276.892 301.493 276.532C301.654 276.167 301.734 275.786 301.734 275.387C301.734 274.93 301.624 274.533 301.404 274.199C301.188 273.864 300.891 273.605 300.514 273.423C300.137 273.241 299.713 273.15 299.242 273.15C298.742 273.15 298.306 273.254 297.933 273.461C297.564 273.665 297.278 273.951 297.075 274.319C296.875 274.688 296.776 275.12 296.776 275.616H295.275C295.275 274.853 295.451 274.184 295.803 273.607C296.155 273.031 296.634 272.582 297.24 272.26C297.85 271.938 298.535 271.777 299.293 271.777C300.056 271.777 300.732 271.938 301.321 272.26C301.91 272.582 302.372 273.016 302.707 273.563C303.042 274.11 303.209 274.718 303.209 275.387C303.209 275.866 303.122 276.335 302.949 276.792C302.779 277.246 302.482 277.752 302.059 278.312C301.639 278.867 301.056 279.545 300.31 280.346L297.386 283.474V283.575H303.438V284.974H295.225Z" fill="black"/>
<path d="M203.332 289.592C195.367 291.002 191.899 303.834 192.626 326.927V362.257H240.802V320.504C238.627 306.88 234.488 297.571 228.396 292.423C222.602 289.592 220.838 293.633 215.108 292.849C211.695 292.382 208.685 289.592 203.332 289.592Z" stroke="black" stroke-width="2.14118"/>
<path d="M206.82 248.619V247.475L211.118 242.771C211.622 242.22 212.037 241.741 212.364 241.334C212.69 240.923 212.932 240.537 213.088 240.177C213.25 239.812 213.33 239.431 213.33 239.033C213.33 238.575 213.22 238.179 212.999 237.844C212.783 237.509 212.487 237.25 212.109 237.068C211.732 236.886 211.308 236.795 210.838 236.795C210.338 236.795 209.901 236.899 209.528 237.106C209.16 237.31 208.874 237.596 208.67 237.965C208.471 238.333 208.371 238.766 208.371 239.261H206.871C206.871 238.499 207.047 237.829 207.399 237.253C207.751 236.676 208.229 236.227 208.836 235.905C209.446 235.583 210.13 235.422 210.889 235.422C211.652 235.422 212.328 235.583 212.917 235.905C213.506 236.227 213.968 236.661 214.303 237.208C214.638 237.755 214.805 238.363 214.805 239.033C214.805 239.511 214.718 239.98 214.544 240.437C214.375 240.891 214.078 241.397 213.654 241.957C213.235 242.512 212.652 243.19 211.906 243.991L208.982 247.119V247.221H215.034V248.619H206.82ZM221.906 248.797C220.948 248.797 220.132 248.537 219.458 248.015C218.785 247.49 218.27 246.729 217.914 245.733C217.558 244.733 217.38 243.525 217.38 242.109C217.38 240.702 217.558 239.501 217.914 238.505C218.274 237.505 218.791 236.742 219.465 236.216C220.143 235.687 220.957 235.422 221.906 235.422C222.855 235.422 223.667 235.687 224.341 236.216C225.019 236.742 225.536 237.505 225.892 238.505C226.252 239.501 226.432 240.702 226.432 242.109C226.432 243.525 226.254 244.733 225.898 245.733C225.542 246.729 225.027 247.49 224.353 248.015C223.68 248.537 222.864 248.797 221.906 248.797ZM221.906 247.399C222.855 247.399 223.593 246.941 224.118 246.025C224.644 245.11 224.906 243.805 224.906 242.109C224.906 240.982 224.786 240.022 224.544 239.23C224.307 238.437 223.963 237.833 223.514 237.418C223.069 237.003 222.533 236.795 221.906 236.795C220.965 236.795 220.23 237.259 219.7 238.187C219.17 239.111 218.905 240.418 218.905 242.109C218.905 243.237 219.024 244.195 219.261 244.983C219.499 245.771 219.84 246.371 220.285 246.782C220.734 247.193 221.274 247.399 221.906 247.399ZM233.425 235.6V248.619H231.848V237.253H231.772L228.594 239.363V237.761L231.848 235.6H233.425Z" fill="black"/>
<path d="M143.378 326.927C143.378 332.28 143.18 347.168 143.378 362.257H192.625V326.927C191.555 309.798 185.408 297.453 180.468 292.423C176.972 288.862 173.355 291.598 168.002 292.423C163.223 293.159 156.878 292.552 153.014 297.159C148.428 302.625 145.519 311.939 143.378 326.927Z" stroke="black" stroke-width="2.14118"/>
<path d="M155.609 235.6V248.619H154.033V237.253H153.956L150.778 239.363V237.761L154.033 235.6H155.609ZM163.6 248.797C162.642 248.797 161.826 248.537 161.153 248.015C160.479 247.49 159.964 246.729 159.608 245.733C159.252 244.733 159.074 243.525 159.074 242.109C159.074 240.702 159.252 239.501 159.608 238.505C159.968 237.505 160.485 236.742 161.159 236.216C161.837 235.687 162.651 235.422 163.6 235.422C164.549 235.422 165.361 235.687 166.035 236.216C166.713 236.742 167.23 237.505 167.586 238.505C167.946 239.501 168.126 240.702 168.126 242.109C168.126 243.525 167.948 244.733 167.592 245.733C167.236 246.729 166.722 247.49 166.048 248.015C165.374 248.537 164.558 248.797 163.6 248.797ZM163.6 247.399C164.549 247.399 165.287 246.941 165.812 246.025C166.338 245.11 166.601 243.805 166.601 242.109C166.601 240.982 166.48 240.022 166.238 239.23C166.001 238.437 165.658 237.833 165.209 237.418C164.764 237.003 164.227 236.795 163.6 236.795C162.659 236.795 161.924 237.259 161.394 238.187C160.864 239.111 160.6 240.418 160.6 242.109C160.6 243.237 160.718 244.195 160.956 244.983C161.193 245.771 161.534 246.371 161.979 246.782C162.428 247.193 162.969 247.399 163.6 247.399ZM175.119 235.6V248.619H173.543V237.253H173.466L170.288 239.363V237.761L173.543 235.6H175.119Z" fill="black"/>
<path d="M143.379 362.257C127.356 363.106 119.393 362.194 106.099 361.375C105.7 334.865 108.624 317.281 115.9 305.515C120.492 298.089 131.003 289.402 135.884 291.598C141.312 294.039 142.316 316.221 143.379 326.927C143.91 332.28 143.18 347.168 143.379 362.257Z" stroke="black" stroke-width="2.14118"/>
<path d="M87.2843 271.955V284.974H85.7077V273.607H85.6314L82.4528 275.718V274.116L85.7077 271.955H87.2843ZM95.2752 285.152C94.3174 285.152 93.5016 284.891 92.8277 284.37C92.1539 283.845 91.6389 283.084 91.2829 282.088C90.9269 281.088 90.7489 279.88 90.7489 278.464C90.7489 277.057 90.9269 275.856 91.2829 274.86C91.6432 273.86 92.1602 273.097 92.8341 272.571C93.5122 272.041 94.3259 271.777 95.2752 271.777C96.2246 271.777 97.0362 272.041 97.71 272.571C98.3881 273.097 98.9052 273.86 99.2612 274.86C99.6214 275.856 99.8015 277.057 99.8015 278.464C99.8015 279.88 99.6235 281.088 99.2675 282.088C98.9115 283.084 98.3966 283.845 97.7227 284.37C97.0489 284.891 96.233 285.152 95.2752 285.152ZM95.2752 283.753C96.2246 283.753 96.962 283.296 97.4875 282.38C98.013 281.465 98.2758 280.16 98.2758 278.464C98.2758 277.337 98.155 276.377 97.9134 275.585C97.6761 274.792 97.3328 274.188 96.8836 273.773C96.4386 273.357 95.9025 273.15 95.2752 273.15C94.3344 273.15 93.599 273.614 93.0693 274.542C92.5395 275.466 92.2746 276.773 92.2746 278.464C92.2746 279.592 92.3933 280.549 92.6306 281.338C92.868 282.126 93.2091 282.726 93.6541 283.137C94.1034 283.548 94.6437 283.753 95.2752 283.753ZM102.217 284.974V283.83L106.515 279.125C107.019 278.575 107.434 278.096 107.761 277.689C108.087 277.278 108.329 276.892 108.485 276.532C108.646 276.167 108.727 275.786 108.727 275.387C108.727 274.93 108.617 274.533 108.396 274.199C108.18 273.864 107.884 273.605 107.506 273.423C107.129 273.241 106.705 273.15 106.235 273.15C105.735 273.15 105.298 273.254 104.925 273.461C104.557 273.665 104.271 273.951 104.067 274.319C103.868 274.688 103.768 275.12 103.768 275.616H102.268C102.268 274.853 102.444 274.184 102.796 273.607C103.148 273.031 103.626 272.582 104.232 272.26C104.843 271.938 105.527 271.777 106.286 271.777C107.049 271.777 107.725 271.938 108.314 272.26C108.903 272.582 109.365 273.016 109.7 273.563C110.034 274.11 110.202 274.718 110.202 275.387C110.202 275.866 110.115 276.335 109.941 276.792C109.772 277.246 109.475 277.752 109.051 278.312C108.632 278.867 108.049 279.545 107.303 280.346L104.379 283.474V283.575H110.431V284.974H102.217Z" fill="black"/>
<path d="M100.555 323.715C97.1183 338.511 97.4269 345.783 97.3429 359.045C100.784 360.311 106.146 362.326 106.099 360.311C105.497 334.138 110.456 316.653 111.261 314.819C109.295 314.602 103.766 316.221 100.555 323.715Z" stroke="black" stroke-width="2.14118"/>
<path d="M63.7312 334.049V347.068H62.1547V335.702H62.0784L58.8998 337.812V336.21L62.1547 334.049H63.7312ZM71.7222 347.246C70.7644 347.246 69.9486 346.986 69.2747 346.464C68.6008 345.939 68.0859 345.178 67.7299 344.182C67.3739 343.182 67.1959 341.974 67.1959 340.559C67.1959 339.152 67.3739 337.95 67.7299 336.954C68.0901 335.954 68.6072 335.191 69.2811 334.666C69.9592 334.136 70.7729 333.871 71.7222 333.871C72.6715 333.871 73.4831 334.136 74.157 334.666C74.8351 335.191 75.3522 335.954 75.7082 336.954C76.0684 337.95 76.2485 339.152 76.2485 340.559C76.2485 341.974 76.0705 343.182 75.7145 344.182C75.3585 345.178 74.8436 345.939 74.1697 346.464C73.4959 346.986 72.68 347.246 71.7222 347.246ZM71.7222 345.848C72.6715 345.848 73.409 345.39 73.9345 344.475C74.46 343.559 74.7228 342.254 74.7228 340.559C74.7228 339.431 74.602 338.471 74.3604 337.679C74.1231 336.886 73.7798 336.282 73.3306 335.867C72.8856 335.452 72.3495 335.244 71.7222 335.244C70.7814 335.244 70.046 335.708 69.5163 336.636C68.9865 337.56 68.7216 338.868 68.7216 340.559C68.7216 341.686 68.8403 342.644 69.0776 343.432C69.315 344.22 69.6561 344.82 70.1011 345.231C70.5504 345.642 71.0907 345.848 71.7222 345.848ZM83.0634 347.246C82.2243 347.246 81.4762 347.102 80.8193 346.814C80.1667 346.526 79.6475 346.125 79.2618 345.613C78.8804 345.096 78.6727 344.496 78.6388 343.813H80.2408C80.2747 344.233 80.4188 344.595 80.6731 344.901C80.9274 345.201 81.2601 345.435 81.6712 345.6C82.0823 345.765 82.5379 345.848 83.038 345.848C83.5974 345.848 84.0933 345.75 84.5256 345.555C84.9578 345.36 85.2969 345.089 85.5427 344.742C85.7885 344.394 85.9114 343.991 85.9114 343.534C85.9114 343.055 85.7928 342.633 85.5554 342.269C85.3181 341.9 84.9706 341.612 84.5128 341.404C84.0551 341.196 83.4957 341.093 82.8345 341.093H81.792V339.694H82.8345C83.3516 339.694 83.8051 339.601 84.195 339.414C84.5891 339.228 84.8964 338.965 85.1168 338.626C85.3414 338.287 85.4537 337.889 85.4537 337.431C85.4537 336.99 85.3562 336.607 85.1613 336.28C84.9663 335.954 84.6908 335.7 84.3348 335.517C83.9831 335.335 83.5677 335.244 83.0888 335.244C82.6396 335.244 82.2158 335.327 81.8174 335.492C81.4233 335.653 81.1012 335.888 80.8511 336.198C80.6011 336.503 80.4654 336.871 80.4443 337.304H78.9185C78.944 336.621 79.1495 336.024 79.5352 335.511C79.9208 334.994 80.4252 334.591 81.0482 334.303C81.6754 334.015 82.3641 333.871 83.1143 333.871C83.9195 333.871 84.6103 334.034 85.1867 334.36C85.7631 334.682 86.206 335.108 86.5153 335.638C86.8247 336.168 86.9794 336.74 86.9794 337.355C86.9794 338.088 86.7866 338.713 86.4009 339.23C86.0195 339.747 85.5003 340.105 84.8434 340.304V340.406C85.6656 340.542 86.3077 340.891 86.7696 341.455C87.2316 342.014 87.4626 342.707 87.4626 343.534C87.4626 344.242 87.2697 344.877 86.8841 345.441C86.5026 346 85.9813 346.441 85.3202 346.763C84.6591 347.085 83.9068 347.246 83.0634 347.246Z" fill="black"/>
<path d="M189.414 254.918C161.713 255.124 115.543 260.55 100.555 323.715C103.766 316.221 109.295 314.602 111.261 314.819C113.529 309.847 114.546 307.802 115.9 305.515C120.492 298.089 131.002 289.402 135.884 291.598C141.312 294.039 142.315 316.221 143.378 326.927C145.336 312.443 148.428 302.625 153.014 297.159C156.878 292.552 163.223 293.159 168.002 292.423C173.355 291.598 176.972 288.862 180.468 292.423C185.408 297.453 189.208 309.329 192.625 326.927C191.899 303.834 195.366 291.002 203.331 289.592C208.684 289.592 211.695 292.382 215.108 292.849C220.838 293.633 222.602 289.592 228.396 292.423C234.488 297.571 238.627 306.88 240.802 320.504C240.966 300.431 242.814 291.03 247.226 290.893C251.581 290.758 263.285 298.021 267.567 317.292C270.779 314.08 273.8 315.205 281.485 323.715C268.637 260.55 216.838 254.714 189.414 254.918Z" fill="#D9D9D9" stroke="black" stroke-width="2.14118"/>
<path d="M138.373 176.956C134.839 176.222 134.057 174.611 132.909 171.492C144.046 161.893 150.195 155.766 158.634 137.612C157.969 135.595 162.486 137.026 166.789 137.612C159.325 160.147 151.212 165.028 138.373 176.956Z" stroke="black" stroke-width="2.18579"/>
<path d="M132.909 171.491C128.041 171.157 125.982 169.237 123.073 163.841C134.668 148.823 138.172 142.323 141.69 135.426L159.138 136.519C158.969 136.888 158.801 137.252 158.634 137.612C150.195 155.766 144.046 161.893 132.909 171.491Z" stroke="black" stroke-width="2.18579"/>
<path d="M102.445 163.841C96.7312 160.757 88.1001 154.005 88.1001 141.983L96.8433 133.24L141.69 135.426C138.172 142.323 134.668 148.823 123.073 163.841C116.515 169.306 107.673 166.663 102.445 163.841Z" stroke="black" stroke-width="2.18579"/>
<path d="M53.1275 152.155C49.4846 152.336 44.3843 151.819 42.1985 148.541C50.9417 133.24 50.9417 115.643 61.8706 115.643C65.4 116.477 71.7067 126.683 69.5209 143.076C65.1493 149.634 57.4987 151.938 53.1275 152.155Z" stroke="black" stroke-width="2.18579"/>
<path d="M153.674 57.8305L154.58 57.219C154.28 56.7756 153.704 56.6141 153.218 56.8373L153.674 57.8305ZM149.302 67.6666L148.211 67.73L148.228 68.0198L148.386 68.2629L149.302 67.6666ZM162.417 109.197L161.326 109.269L161.394 110.289H162.417V109.197ZM167.881 109.197V110.289H168.909L168.972 109.264L167.881 109.197ZM153.674 57.8305L153.218 56.8373C151.335 57.7016 149.735 58.426 148.876 60.1241C148.457 60.9531 148.247 61.9401 148.159 63.1455C148.071 64.3509 148.102 65.8462 148.211 67.73L149.302 67.6666L150.393 67.6031C150.285 65.7438 150.262 64.3635 150.339 63.3045C150.416 62.2455 150.59 61.5794 150.827 61.1106C151.281 60.2129 152.085 59.7624 154.13 58.8238L153.674 57.8305ZM162.417 109.197L163.507 109.125C162.88 99.626 161.809 92.5482 159.757 86.1121C157.702 79.6692 154.681 73.9239 150.218 67.0702L149.302 67.6666L148.386 68.2629C152.789 75.0228 155.7 80.5859 157.675 86.7762C159.651 92.9733 160.705 99.8537 161.326 109.269L162.417 109.197ZM153.674 57.8305L152.768 58.442C158.829 67.42 162.653 74.6097 164.808 82.2649C166.963 89.9173 167.473 98.1125 166.791 109.129L167.881 109.197L168.972 109.264C169.662 98.1176 169.159 89.6514 166.912 81.6724C164.666 73.6962 160.7 66.2843 154.58 57.219L153.674 57.8305ZM167.881 109.197V108.104H162.417V109.197V110.289H167.881V109.197Z" fill="black"/>
<path d="M135.095 77.5025C137.28 67.6665 142.475 57.2372 149.302 67.6665C158.168 81.2801 161.168 90.2831 162.417 109.196H142.745L135.095 77.5025Z" stroke="black" stroke-width="2.18579"/>
<path d="M115.422 69.3398C121.64 69.4359 128.654 72.5116 135.095 77.5026L142.243 108.368C145.432 110.494 116.372 105.604 96.8433 102.639L83.7285 77.5026C91.3788 74.2239 106.339 69.1993 115.422 69.3398Z" stroke="black" stroke-width="2.18579"/>
<path d="M24.7122 62.273C28.6095 61.8663 36.7341 64.3879 41.1057 70.9452C41.1057 86.2458 37.2603 91.769 33.4554 92.0956C29.2668 92.4552 24.7122 92.0956 14.8762 73.131C14.8762 65.4808 20.6737 62.6945 24.7122 62.273Z" stroke="black" stroke-width="2.18579"/>
<path d="M12.6904 152.443L42.1986 149.165C44.3843 152.443 49.4846 152.96 53.1275 152.779C57.4987 152.562 65.1493 150.258 69.5209 143.7C77.3903 142.245 81.4263 142.058 88.1001 142.607C88.1001 154.629 96.7312 161.381 102.445 164.465C107.673 167.287 116.515 169.93 123.073 164.465C125.982 169.861 128.041 171.781 132.909 172.115C134.057 175.235 134.839 176.846 138.373 177.58C120.765 191.481 107.869 197.988 81.5428 208.181C41.2416 199.206 28.4528 184.821 12.6904 152.443Z" fill="#D9D9D9"/>
<path d="M50.9417 1.62396C58.9795 7.24479 76.0783 7.08843 84.8214 9.31666C100.122 13.216 114.33 23.4819 126.351 30.3019C136.187 35.8819 147.116 50.8042 153.674 58.4545C149.746 60.2574 148.867 60.8044 149.302 68.2905C142.475 57.8612 137.28 68.2905 135.095 78.1266C128.654 73.1356 121.64 70.0599 115.422 69.9638C106.339 69.8233 91.3788 74.8479 83.7285 78.1266C71.1926 67.6494 62.3873 68.0962 41.1057 71.5692C36.7341 65.0118 28.6095 62.4903 24.7122 62.897C20.6737 63.3184 14.8762 66.1047 14.8762 73.755H1.76146C1.8665 38.3171 15.5242 23.6232 50.9417 1.62396Z" fill="#D9D9D9"/>
<path d="M50.9417 1.62396L51.568 0.728334L50.9773 0.315269L50.3651 0.695583L50.9417 1.62396ZM153.674 58.4545L154.13 59.4477C154.441 59.3047 154.668 59.0236 154.741 58.6886C154.815 58.3536 154.727 58.0036 154.504 57.7432L153.674 58.4545ZM84.8214 9.31666L84.5515 10.3757L84.8214 9.31666ZM126.351 30.3019L126.891 29.3513L126.351 30.3019ZM149.302 68.2905L148.388 68.8891L150.631 72.3164L150.393 68.227L149.302 68.2905ZM135.095 78.1266L134.425 78.9905L135.788 80.0462L136.161 78.3637L135.095 78.1266ZM83.7285 78.1266L83.0277 78.9651L83.5424 79.3954L84.1591 79.1311L83.7285 78.1266ZM41.1057 71.5692L40.1963 72.1754L40.5868 72.7612L41.2817 72.6478L41.1057 71.5692ZM14.8762 73.755V74.8479H15.9691V73.755H14.8762ZM1.76146 73.755L0.66857 73.7518L0.665321 74.8479H1.76146V73.755ZM24.7122 62.897L24.8257 63.984L24.7122 62.897ZM115.422 69.9638L115.439 68.871L115.422 69.9638ZM12.6904 152.443L12.5697 151.357L11.0294 151.528L11.7078 152.922L12.6904 152.443ZM42.1986 149.165L43.1079 148.558L42.7389 148.005L42.0779 148.078L42.1986 149.165ZM69.5209 143.7L69.3222 142.626L68.8679 142.71L68.6116 143.094L69.5209 143.7ZM53.1275 152.779L53.1818 153.871L53.1275 152.779ZM88.1001 142.607H89.193V141.601L88.1897 141.518L88.1001 142.607ZM123.073 164.465L124.035 163.947L123.4 162.77L122.373 163.626L123.073 164.465ZM102.445 164.465L101.926 165.427L102.445 164.465ZM132.909 172.115L133.934 171.738L133.69 171.074L132.984 171.025L132.909 172.115ZM138.373 177.58L139.05 178.438L140.889 176.986L138.596 176.51L138.373 177.58ZM81.5428 208.181L81.3052 209.248L81.6285 209.32L81.9374 209.2L81.5428 208.181ZM50.9417 1.62396L50.3154 2.51959C54.572 5.49627 61.1032 6.88434 67.4572 7.82368C70.654 8.29627 73.8957 8.66562 76.8279 9.04875C79.7858 9.43523 82.4357 9.83646 84.5515 10.3757L84.8214 9.31666L85.0913 8.25761C82.8356 7.68274 80.0695 7.26793 77.1111 6.88139C74.1272 6.4915 70.9524 6.13084 67.7769 5.66139C61.3863 4.71665 55.3492 3.37248 51.568 0.728334L50.9417 1.62396ZM84.8214 9.31666L84.5515 10.3757C92.0665 12.2909 99.3472 15.7794 106.281 19.6673C109.746 21.61 113.113 23.6454 116.375 25.628C119.631 27.607 122.789 29.5374 125.812 31.2524L126.351 30.3019L126.891 29.3513C123.903 27.6563 120.777 25.7459 117.51 23.7602C114.249 21.778 110.853 19.7244 107.35 17.7607C100.35 13.8359 92.8769 10.2418 85.0913 8.25761L84.8214 9.31666ZM126.351 30.3019L125.812 31.2524C130.561 33.9465 135.651 38.9515 140.425 44.3275C145.224 49.7321 149.49 55.2521 152.844 59.1657L153.674 58.4545L154.504 57.7432C151.301 54.0065 146.823 48.2402 142.059 42.8761C137.27 37.4834 131.978 32.2372 126.891 29.3513L126.351 30.3019ZM153.674 58.4545L153.218 57.4612C151.335 58.3256 149.735 59.05 148.876 60.7481C148.457 61.5771 148.247 62.564 148.159 63.7695C148.071 64.9748 148.102 66.4702 148.211 68.354L149.302 68.2905L150.393 68.227C150.285 66.3678 150.262 64.9875 150.339 63.9284C150.416 62.8695 150.59 62.2034 150.827 61.7345C151.281 60.8369 152.085 60.3863 154.13 59.4477L153.674 58.4545ZM149.302 68.2905L150.217 67.692C148.46 65.0076 146.651 63.4085 144.751 62.9784C142.755 62.5269 141.029 63.432 139.669 64.8532C138.319 66.2629 137.189 68.307 136.265 70.5589C135.335 72.8275 134.584 75.3855 134.028 77.8895L135.095 78.1266L136.161 78.3637C136.698 75.9496 137.416 73.5154 138.288 71.388C139.167 69.244 140.172 67.4884 141.247 66.3649C142.312 65.2529 143.301 64.8915 144.268 65.1103C145.33 65.3506 146.732 66.3588 148.388 68.8891L149.302 68.2905ZM83.7285 78.1266L84.4294 77.288C78.0399 71.9478 72.5123 69.3258 65.8257 68.5313C59.2194 67.7464 51.546 68.7581 40.9296 70.4906L41.1057 71.5692L41.2817 72.6478C51.947 70.9073 59.3171 69.9591 65.5678 70.7018C71.7383 71.435 76.8813 73.8282 83.0277 78.9651L83.7285 78.1266ZM14.8762 73.755V72.6621H1.76146V73.755V74.8479H14.8762V73.755ZM41.1057 71.5692L42.015 70.963C39.6927 67.4795 36.3914 65.0913 33.185 63.6274C30.0009 62.1737 26.7964 61.5807 24.5988 61.81L24.7122 62.897L24.8257 63.984C26.5253 63.8066 29.3317 64.271 32.2772 65.6157C35.2002 66.9503 38.147 69.1015 40.1963 72.1754L41.1057 71.5692ZM24.7122 62.897L24.5988 61.81C22.4096 62.0385 19.7219 62.906 17.5611 64.7918C15.3661 66.7075 13.7833 69.6183 13.7833 73.755H14.8762H15.9691C15.9691 70.2414 17.2851 67.9339 18.9984 66.4386C20.746 64.9134 22.9764 64.177 24.8257 63.984L24.7122 62.897ZM135.095 78.1266L135.764 77.2627C129.217 72.1897 121.979 68.9721 115.439 68.871L115.422 69.9638L115.406 71.0566C121.301 71.1477 128.09 74.0815 134.425 78.9905L135.095 78.1266ZM115.422 69.9638L115.439 68.871C110.733 68.7983 104.596 70.0562 98.7406 71.7113C92.8624 73.3729 87.1654 75.4646 83.298 77.122L83.7285 78.1266L84.1591 79.1311C87.942 77.5098 93.55 75.45 99.3352 73.8147C105.143 72.173 111.029 70.9889 115.406 71.0566L115.422 69.9638ZM12.6904 152.443L12.8111 153.53L42.3192 150.251L42.1986 149.165L42.0779 148.078L12.5697 151.357L12.6904 152.443ZM42.1986 149.165L41.2892 149.771C42.5906 151.723 44.7057 152.777 46.8438 153.328C48.9916 153.881 51.297 153.965 53.1818 153.871L53.1275 152.779L53.0732 151.688C51.3152 151.775 49.249 151.69 47.3894 151.211C45.5202 150.729 43.9923 149.885 43.1079 148.558L42.1986 149.165ZM53.1275 152.779L53.1818 153.871C57.7694 153.643 65.8046 151.245 70.4303 144.306L69.5209 143.7L68.6116 143.094C64.4941 149.27 57.2281 151.481 53.0732 151.688L53.1275 152.779ZM69.5209 143.7L69.7197 144.775C77.503 143.335 81.4418 143.156 88.0105 143.697L88.1001 142.607L88.1897 141.518C81.4108 140.96 77.2775 141.154 69.3222 142.626L69.5209 143.7ZM88.1001 142.607H87.0072C87.0072 155.238 96.0891 162.276 101.926 165.427L102.445 164.465L102.964 163.504C97.3732 160.485 89.193 154.02 89.193 142.607H88.1001ZM102.445 164.465L101.926 165.427C104.626 166.884 108.288 168.314 112.163 168.661C116.055 169.01 120.216 168.268 123.772 165.305L123.073 164.465L122.373 163.626C119.372 166.127 115.834 166.796 112.358 166.484C108.865 166.171 105.492 164.868 102.964 163.504L102.445 164.465ZM123.073 164.465L122.111 164.984C123.576 167.701 124.903 169.698 126.571 171.04C128.285 172.419 130.255 173.029 132.834 173.206L132.909 172.115L132.984 171.025C130.695 170.868 129.202 170.351 127.941 169.337C126.636 168.286 125.479 166.625 124.035 163.947L123.073 164.465ZM132.909 172.115L131.883 172.493C132.448 174.028 132.99 175.405 133.927 176.466C134.912 177.581 136.235 178.252 138.151 178.65L138.373 177.58L138.596 176.51C136.978 176.174 136.143 175.673 135.566 175.019C134.941 174.311 134.518 173.323 133.934 171.738L132.909 172.115ZM138.373 177.58L137.696 176.722C120.205 190.531 107.417 196.991 81.1482 207.162L81.5428 208.181L81.9374 209.2C108.32 198.985 121.326 192.431 139.05 178.438L138.373 177.58ZM50.9417 1.62396L50.3651 0.695583C32.6463 11.7014 20.2142 20.969 12.224 32.0092C4.19695 43.1005 0.721549 55.8787 0.66857 73.7518L1.76146 73.755L2.85435 73.7582C2.90641 56.1934 6.31236 43.9057 13.9947 33.2907C21.714 22.6248 33.8196 13.5458 51.5184 2.55234L50.9417 1.62396ZM12.6904 152.443L11.7078 152.922C19.6035 169.14 26.8207 181 37.2025 189.917C47.5964 198.844 61.0624 204.74 81.3052 209.248L81.5428 208.181L81.7803 207.114C61.722 202.647 48.643 196.862 38.6267 188.259C28.5981 179.645 21.5397 168.124 13.673 151.965L12.6904 152.443Z" fill="black"/>
<path d="M153.674 57.8305L154.13 58.8238C154.441 58.6807 154.668 58.3996 154.741 58.0647C154.815 57.7297 154.727 57.3796 154.504 57.1193L153.674 57.8305ZM84.8215 8.69269L84.5516 9.75174L84.8215 8.69269ZM126.351 29.6779L126.891 28.7273L126.351 29.6779ZM149.302 67.6666L148.388 68.2651L150.631 71.6924L150.393 67.6031L149.302 67.6666ZM135.095 77.5026L134.425 78.3665L135.788 79.4222L136.161 77.7397L135.095 77.5026ZM83.7286 77.5026L83.0277 78.3412L83.5425 78.7714L84.1591 78.5071L83.7286 77.5026ZM41.1057 70.9452L40.1963 71.5515L40.5869 72.1373L41.2817 72.0239L41.1057 70.9452ZM14.8762 73.131V74.2239H15.9691V73.131H14.8762ZM24.7123 62.273L24.5988 61.186L24.7123 62.273ZM115.423 69.3398L115.439 68.2471L115.423 69.3398ZM42.1986 148.541L43.1079 147.935L42.739 147.381L42.0779 147.455L42.1986 148.541ZM69.5209 143.076L69.3222 142.002L68.8679 142.086L68.6116 142.47L69.5209 143.076ZM53.1275 152.155L53.1818 153.247L53.1275 152.155ZM88.1002 141.983H89.193V140.977L88.1898 140.894L88.1002 141.983ZM123.073 163.841L124.035 163.323L123.4 162.146L122.373 163.002L123.073 163.841ZM102.445 163.841L101.926 164.803L102.445 163.841ZM132.909 171.492L133.934 171.114L133.69 170.45L132.984 170.401L132.909 171.492ZM138.373 176.956L139.051 177.814L140.889 176.362L138.596 175.886L138.373 176.956ZM50.9417 1L50.3154 1.89563C54.5721 4.8723 61.1032 6.26038 67.4573 7.19972C70.654 7.67231 73.8957 8.04166 76.828 8.42479C79.7858 8.81127 82.4357 9.2125 84.5516 9.75174L84.8215 8.69269L85.0914 7.63365C82.8357 7.05878 80.0695 6.64397 77.1112 6.25742C74.1272 5.86754 70.9524 5.50688 67.7769 5.03743C61.3863 4.09268 55.3492 2.74852 51.5681 0.104372L50.9417 1ZM84.8215 8.69269L84.5516 9.75174C92.0665 11.667 99.3472 15.1554 106.281 19.0433C109.746 20.9861 113.113 23.0214 116.375 25.004C119.631 26.9831 122.789 28.9135 125.812 30.6285L126.351 29.6779L126.891 28.7273C123.903 27.0323 120.777 25.122 117.51 23.1362C114.249 21.154 110.853 19.1004 107.35 17.1368C100.35 13.212 92.8769 9.61782 85.0914 7.63365L84.8215 8.69269ZM126.351 29.6779L125.812 30.6285C130.561 33.3225 135.651 38.3275 140.425 43.7035C145.224 49.1082 149.49 54.6282 152.844 58.5418L153.674 57.8305L154.504 57.1193C151.301 53.3826 146.823 47.6163 142.059 42.2522C137.27 36.8594 131.978 31.6133 126.891 28.7273L126.351 29.6779ZM153.674 57.8305L153.218 56.8373C151.335 57.7016 149.735 58.426 148.876 60.1241C148.457 60.9531 148.247 61.9401 148.159 63.1455C148.071 64.3509 148.102 65.8462 148.211 67.7301L149.302 67.6666L150.393 67.6031C150.285 65.7438 150.262 64.3635 150.339 63.3045C150.416 62.2456 150.59 61.5794 150.827 61.1106C151.281 60.2129 152.085 59.7624 154.13 58.8238L153.674 57.8305ZM149.302 67.6666L150.217 67.068C148.46 64.3837 146.651 62.7845 144.751 62.3545C142.755 61.9029 141.029 62.8081 139.669 64.2293C138.319 65.6389 137.189 67.683 136.265 69.935C135.335 72.2036 134.584 74.7615 134.028 77.2655L135.095 77.5026L136.161 77.7397C136.698 75.3257 137.416 72.8915 138.288 70.7641C139.167 68.6201 140.172 66.8644 141.247 65.7409C142.312 64.6289 143.301 64.2675 144.268 64.4863C145.33 64.7266 146.732 65.7348 148.388 68.2651L149.302 67.6666ZM83.7286 77.5026L84.4294 76.664C78.0399 71.3238 72.5123 68.7018 65.8257 67.9074C59.2194 67.1224 51.546 68.1341 40.9297 69.8666L41.1057 70.9452L41.2817 72.0239C51.947 70.2834 59.3171 69.3352 65.5678 70.0779C71.7383 70.811 76.8813 73.2042 83.0277 78.3412L83.7286 77.5026ZM14.8762 73.131V72.0381H1.76149V73.131V74.2239H14.8762V73.131ZM41.1057 70.9452L42.015 70.339C39.6927 66.8556 36.3915 64.4673 33.185 63.0034C30.0009 61.5497 26.7964 60.9567 24.5988 61.186L24.7123 62.273L24.8257 63.36C26.5254 63.1826 29.3318 63.647 32.2772 64.9918C35.2003 66.3263 38.1471 68.4776 40.1963 71.5515L41.1057 70.9452ZM24.7123 62.273L24.5988 61.186C22.4096 61.4145 19.722 62.282 17.5612 64.1678C15.3661 66.0836 13.7833 68.9943 13.7833 73.131H14.8762H15.9691C15.9691 69.6175 17.2851 67.31 18.9984 65.8146C20.746 64.2894 22.9764 63.553 24.8257 63.36L24.7123 62.273ZM135.095 77.5026L135.764 76.6387C129.217 71.5657 121.979 68.3482 115.439 68.2471L115.423 69.3398L115.406 70.4326C121.301 70.5237 128.09 73.4575 134.425 78.3665L135.095 77.5026ZM115.423 69.3398L115.439 68.2471C110.733 68.1743 104.596 69.4322 98.7407 71.0874C92.8624 72.7489 87.1654 74.8407 83.2981 76.4981L83.7286 77.5026L84.1591 78.5071C87.942 76.8859 93.5501 74.826 99.3352 73.1907C105.143 71.549 111.029 70.3649 115.406 70.4326L115.423 69.3398ZM12.6904 151.819L12.8111 152.906L42.3193 149.627L42.1986 148.541L42.0779 147.455L12.5697 150.733L12.6904 151.819ZM42.1986 148.541L41.2892 149.147C42.5906 151.099 44.7058 152.153 46.8439 152.704C48.9916 153.257 51.297 153.341 53.1818 153.247L53.1275 152.155L53.0733 151.064C51.3152 151.151 49.249 151.067 47.3895 150.587C45.5202 150.105 43.9923 149.261 43.1079 147.935L42.1986 148.541ZM53.1275 152.155L53.1818 153.247C57.7694 153.019 65.8046 150.621 70.4303 143.683L69.5209 143.076L68.6116 142.47C64.4941 148.646 57.2281 150.857 53.0733 151.064L53.1275 152.155ZM69.5209 143.076L69.7197 144.151C77.503 142.712 81.4419 142.532 88.0105 143.073L88.1002 141.983L88.1898 140.894C81.4109 140.336 77.2775 140.53 69.3222 142.002L69.5209 143.076ZM88.1002 141.983H87.0073C87.0073 154.614 96.0891 161.652 101.926 164.803L102.445 163.841L102.964 162.88C97.3733 159.861 89.193 153.396 89.193 141.983H88.1002ZM102.445 163.841L101.926 164.803C104.626 166.26 108.288 167.69 112.163 168.037C116.055 168.386 120.216 167.644 123.772 164.681L123.073 163.841L122.373 163.002C119.372 165.503 115.834 166.172 112.358 165.86C108.865 165.547 105.492 164.244 102.964 162.88L102.445 163.841ZM123.073 163.841L122.111 164.36C123.576 167.077 124.903 169.074 126.571 170.416C128.285 171.795 130.255 172.405 132.834 172.582L132.909 171.492L132.984 170.401C130.695 170.244 129.202 169.727 127.942 168.713C126.636 167.663 125.479 166.001 124.035 163.323L123.073 163.841ZM132.909 171.492L131.883 171.869C132.448 173.404 132.99 174.781 133.927 175.842C134.912 176.957 136.235 177.628 138.151 178.026L138.373 176.956L138.596 175.886C136.978 175.55 136.143 175.049 135.566 174.395C134.941 173.687 134.518 172.699 133.934 171.114L132.909 171.492ZM138.373 176.956L137.696 176.098C120.205 189.907 107.417 196.367 81.1482 206.538L81.5428 207.557L81.9374 208.576C108.32 198.361 121.326 191.807 139.051 177.814L138.373 176.956Z" fill="black"/>
<path d="M241.134 176.956C244.668 176.222 245.451 174.611 246.599 171.492C235.461 161.893 229.313 155.766 220.874 137.612C221.539 135.595 217.022 137.026 212.719 137.612C220.183 160.147 228.296 165.028 241.134 176.956Z" stroke="black" stroke-width="2.18579"/>
<path d="M246.599 171.491C251.467 171.157 253.526 169.237 256.435 163.841C244.84 148.823 241.336 142.323 237.818 135.426L220.369 136.519C220.538 136.888 220.706 137.252 220.874 137.612C229.313 155.766 235.461 161.893 246.599 171.491Z" stroke="black" stroke-width="2.18579"/>
<path d="M277.062 163.841C282.776 160.757 291.408 154.005 291.408 141.983L282.664 133.24L237.818 135.426C241.336 142.323 244.84 148.823 256.435 163.841C262.992 169.306 271.835 166.663 277.062 163.841Z" stroke="black" stroke-width="2.18579"/>
<path d="M326.38 152.155C330.023 152.336 335.123 151.819 337.309 148.541C328.566 133.24 328.566 115.643 317.637 115.643C314.108 116.477 307.801 126.683 309.987 143.076C314.358 149.634 322.009 151.938 326.38 152.155Z" stroke="black" stroke-width="2.18579"/>
<path d="M225.834 57.8305L224.928 57.219C225.227 56.7756 225.804 56.6141 226.29 56.8373L225.834 57.8305ZM230.205 67.6666L231.297 67.73L231.28 68.0198L231.121 68.2629L230.205 67.6666ZM217.091 109.197L218.181 109.269L218.114 110.289H217.091V109.197ZM211.626 109.197V110.289H210.599L210.535 109.264L211.626 109.197ZM225.834 57.8305L226.29 56.8373C228.173 57.7016 229.772 58.426 230.631 60.1241C231.05 60.9531 231.261 61.9401 231.349 63.1455C231.436 64.3509 231.406 65.8462 231.297 67.73L230.205 67.6666L229.114 67.6031C229.223 65.7438 229.246 64.3635 229.169 63.3045C229.091 62.2455 228.918 61.5794 228.681 61.1106C228.227 60.2129 227.423 59.7624 225.378 58.8238L225.834 57.8305ZM217.091 109.197L216 109.125C216.627 99.626 217.698 92.5482 219.751 86.1121C221.805 79.6692 224.826 73.9239 229.29 67.0702L230.205 67.6666L231.121 68.2629C226.719 75.0228 223.807 80.5859 221.833 86.7762C219.857 92.9733 218.803 99.8537 218.181 109.269L217.091 109.197ZM225.834 57.8305L226.74 58.442C220.679 67.42 216.855 74.6097 214.7 82.2649C212.545 89.9173 212.035 98.1125 212.717 109.129L211.626 109.197L210.535 109.264C209.845 98.1176 210.349 89.6514 212.596 81.6724C214.842 73.6962 218.808 66.2843 224.928 57.219L225.834 57.8305ZM211.626 109.197V108.104H217.091V109.197V110.289H211.626V109.197Z" fill="black"/>
<path d="M244.413 77.5025C242.227 67.6665 237.032 57.2372 230.205 67.6665C221.34 81.2801 218.34 90.2831 217.091 109.196H236.763L244.413 77.5025Z" stroke="black" stroke-width="2.18579"/>
<path d="M264.085 69.3398C257.868 69.4359 250.854 72.5116 244.413 77.5026L237.265 108.368C234.076 110.494 263.135 105.604 282.664 102.639L295.779 77.5026C288.129 74.2239 273.169 69.1993 264.085 69.3398Z" stroke="black" stroke-width="2.18579"/>
<path d="M354.795 62.273C350.898 61.8663 342.774 64.3879 338.402 70.9452C338.402 86.2458 342.247 91.769 346.052 92.0956C350.241 92.4552 354.795 92.0956 364.631 73.131C364.631 65.4808 358.834 62.6945 354.795 62.273Z" stroke="black" stroke-width="2.18579"/>
<path d="M366.817 152.443L337.309 149.165C335.123 152.443 330.023 152.96 326.38 152.779C322.009 152.562 314.358 150.258 309.987 143.7C302.117 142.245 298.081 142.058 291.408 142.607C291.408 154.629 282.777 161.381 277.062 164.465C271.835 167.287 262.992 169.93 256.435 164.465C253.525 169.861 251.467 171.781 246.599 172.115C245.451 175.235 244.668 176.846 241.134 177.58C258.742 191.481 271.639 197.988 297.965 208.181C338.266 199.206 351.055 184.821 366.817 152.443Z" fill="#D9D9D9"/>
<path d="M328.566 1.62396C320.528 7.24479 303.429 7.08843 294.686 9.31666C279.386 13.216 265.178 23.4819 253.156 30.3019C243.32 35.8819 232.391 50.8042 225.834 58.4545C229.762 60.2574 230.641 60.8044 230.205 68.2905C237.032 57.8612 242.227 68.2905 244.413 78.1266C250.854 73.1356 257.868 70.0599 264.085 69.9638C273.169 69.8233 288.129 74.8479 295.779 78.1266C308.315 67.6494 317.12 68.0962 338.402 71.5692C342.774 65.0118 350.898 62.4903 354.795 62.897C358.834 63.3184 364.631 66.1047 364.631 73.755H377.746C377.641 38.3171 363.984 23.6232 328.566 1.62396Z" fill="#D9D9D9"/>
<path d="M328.566 1.62396L327.94 0.728334L328.53 0.315269L329.143 0.695583L328.566 1.62396ZM225.834 58.4545L225.378 59.4477C225.066 59.3047 224.84 59.0236 224.766 58.6886C224.693 58.3536 224.781 58.0036 225.004 57.7432L225.834 58.4545ZM294.686 9.31666L294.956 10.3757L294.686 9.31666ZM253.156 30.3019L252.617 29.3513L253.156 30.3019ZM230.205 68.2905L231.12 68.8891L228.876 72.3164L229.114 68.227L230.205 68.2905ZM244.413 78.1266L245.083 78.9905L243.72 80.0462L243.346 78.3637L244.413 78.1266ZM295.779 78.1266L296.48 78.9651L295.965 79.3954L295.349 79.1311L295.779 78.1266ZM338.402 71.5692L339.311 72.1754L338.921 72.7612L338.226 72.6478L338.402 71.5692ZM364.631 73.755V74.8479H363.539V73.755H364.631ZM377.746 73.755L378.839 73.7518L378.842 74.8479H377.746V73.755ZM354.795 62.897L354.682 63.984L354.795 62.897ZM264.085 69.9638L264.068 68.871L264.085 69.9638ZM366.817 152.443L366.938 151.357L368.478 151.528L367.8 152.922L366.817 152.443ZM337.309 149.165L336.4 148.558L336.769 148.005L337.43 148.078L337.309 149.165ZM309.987 143.7L310.186 142.626L310.64 142.71L310.896 143.094L309.987 143.7ZM326.38 152.779L326.326 153.871L326.38 152.779ZM291.408 142.607H290.315V141.601L291.318 141.518L291.408 142.607ZM256.435 164.465L255.473 163.947L256.107 162.77L257.135 163.626L256.435 164.465ZM277.062 164.465L277.582 165.427L277.062 164.465ZM246.599 172.115L245.573 171.738L245.818 171.074L246.524 171.025L246.599 172.115ZM241.134 177.58L240.457 178.438L238.619 176.986L240.912 176.51L241.134 177.58ZM297.965 208.181L298.202 209.248L297.879 209.32L297.57 209.2L297.965 208.181ZM328.566 1.62396L329.192 2.51959C324.936 5.49627 318.404 6.88434 312.05 7.82368C308.854 8.29627 305.612 8.66562 302.68 9.04875C299.722 9.43523 297.072 9.83646 294.956 10.3757L294.686 9.31666L294.416 8.25761C296.672 7.68274 299.438 7.26793 302.397 6.88139C305.38 6.4915 308.555 6.13084 311.731 5.66139C318.121 4.71665 324.159 3.37248 327.94 0.728334L328.566 1.62396ZM294.686 9.31666L294.956 10.3757C287.441 12.2909 280.161 15.7794 273.226 19.6673C269.761 21.61 266.395 23.6454 263.133 25.628C259.877 27.607 256.719 29.5374 253.696 31.2524L253.156 30.3019L252.617 29.3513C255.605 27.6563 258.731 25.7459 261.998 23.7602C265.259 21.778 268.655 19.7244 272.157 17.7607C279.157 13.8359 286.631 10.2418 294.416 8.25761L294.686 9.31666ZM253.156 30.3019L253.696 31.2524C248.947 33.9465 243.857 38.9515 239.083 44.3275C234.283 49.7321 230.018 55.2521 226.664 59.1657L225.834 58.4545L225.004 57.7432C228.207 54.0065 232.685 48.2402 237.448 42.8761C242.237 37.4834 247.53 32.2372 252.617 29.3513L253.156 30.3019ZM225.834 58.4545L226.29 57.4612C228.173 58.3256 229.772 59.05 230.631 60.7481C231.05 61.5771 231.261 62.564 231.349 63.7695C231.436 64.9748 231.406 66.4702 231.297 68.354L230.205 68.2905L229.114 68.227C229.223 66.3678 229.246 64.9875 229.169 63.9284C229.091 62.8695 228.918 62.2034 228.681 61.7345C228.227 60.8369 227.423 60.3863 225.378 59.4477L225.834 58.4545ZM230.205 68.2905L229.291 67.692C231.048 65.0076 232.856 63.4085 234.757 62.9784C236.752 62.5269 238.478 63.432 239.839 64.8532C241.189 66.2629 242.319 68.307 243.242 70.5589C244.172 72.8275 244.924 75.3855 245.48 77.8895L244.413 78.1266L243.346 78.3637C242.81 75.9496 242.092 73.5154 241.22 71.388C240.341 69.244 239.336 67.4884 238.26 66.3649C237.196 65.2529 236.206 64.8915 235.239 65.1103C234.177 65.3506 232.776 66.3588 231.12 68.8891L230.205 68.2905ZM295.779 78.1266L295.078 77.288C301.468 71.9478 306.995 69.3258 313.682 68.5313C320.288 67.7464 327.962 68.7581 338.578 70.4906L338.402 71.5692L338.226 72.6478C327.561 70.9073 320.191 69.9591 313.94 70.7018C307.769 71.435 302.626 73.8282 296.48 78.9651L295.779 78.1266ZM364.631 73.755V72.6621H377.746V73.755V74.8479H364.631V73.755ZM338.402 71.5692L337.493 70.963C339.815 67.4795 343.116 65.0913 346.323 63.6274C349.507 62.1737 352.711 61.5807 354.909 61.81L354.795 62.897L354.682 63.984C352.982 63.8066 350.176 64.271 347.23 65.6157C344.307 66.9503 341.361 69.1015 339.311 72.1754L338.402 71.5692ZM354.795 62.897L354.909 61.81C357.098 62.0385 359.786 62.906 361.947 64.7918C364.142 66.7075 365.724 69.6183 365.724 73.755H364.631H363.539C363.539 70.2414 362.223 67.9339 360.509 66.4386C358.762 64.9134 356.531 64.177 354.682 63.984L354.795 62.897ZM244.413 78.1266L243.744 77.2627C250.291 72.1897 257.529 68.9721 264.068 68.871L264.085 69.9638L264.102 71.0566C258.207 71.1477 251.418 74.0815 245.083 78.9905L244.413 78.1266ZM264.085 69.9638L264.068 68.871C268.775 68.7983 274.912 70.0562 280.767 71.7113C286.645 73.3729 292.342 75.4646 296.21 77.122L295.779 78.1266L295.349 79.1311C291.566 77.5098 285.958 75.45 280.172 73.8147C274.365 72.173 268.479 70.9889 264.102 71.0566L264.085 69.9638ZM366.817 152.443L366.697 153.53L337.188 150.251L337.309 149.165L337.43 148.078L366.938 151.357L366.817 152.443ZM337.309 149.165L338.218 149.771C336.917 151.723 334.802 152.777 332.664 153.328C330.516 153.881 328.211 153.965 326.326 153.871L326.38 152.779L326.434 151.688C328.192 151.775 330.259 151.69 332.118 151.211C333.987 150.729 335.515 149.885 336.4 148.558L337.309 149.165ZM326.38 152.779L326.326 153.871C321.738 153.643 313.703 151.245 309.077 144.306L309.987 143.7L310.896 143.094C315.014 149.27 322.28 151.481 326.434 151.688L326.38 152.779ZM309.987 143.7L309.788 144.775C302.005 143.335 298.066 143.156 291.497 143.697L291.408 142.607L291.318 141.518C298.097 140.96 302.23 141.154 310.186 142.626L309.987 143.7ZM291.408 142.607H292.5C292.5 155.238 283.419 162.276 277.582 165.427L277.062 164.465L276.543 163.504C282.134 160.485 290.315 154.02 290.315 142.607H291.408ZM277.062 164.465L277.582 165.427C274.882 166.884 271.219 168.314 267.345 168.661C263.453 169.01 259.291 168.268 255.735 165.305L256.435 164.465L257.135 163.626C260.136 166.127 263.674 166.796 267.15 166.484C270.643 166.171 274.015 164.868 276.543 163.504L277.062 164.465ZM256.435 164.465L257.397 164.984C255.932 167.701 254.604 169.698 252.936 171.04C251.223 172.419 249.252 173.029 246.674 173.206L246.599 172.115L246.524 171.025C248.813 170.868 250.306 170.351 251.566 169.337C252.872 168.286 254.029 166.625 255.473 163.947L256.435 164.465ZM246.599 172.115L247.625 172.493C247.06 174.028 246.517 175.405 245.58 176.466C244.596 177.581 243.273 178.252 241.357 178.65L241.134 177.58L240.912 176.51C242.53 176.174 243.365 175.673 243.942 175.019C244.567 174.311 244.99 173.323 245.573 171.738L246.599 172.115ZM241.134 177.58L241.812 176.722C259.303 190.531 272.09 196.991 298.36 207.162L297.965 208.181L297.57 209.2C271.188 198.985 258.182 192.431 240.457 178.438L241.134 177.58ZM328.566 1.62396L329.143 0.695583C346.861 11.7014 359.293 20.969 367.284 32.0092C375.311 43.1005 378.786 55.8787 378.839 73.7518L377.746 73.755L376.653 73.7582C376.601 56.1934 373.195 43.9057 365.513 33.2907C357.794 22.6248 345.688 13.5458 327.989 2.55234L328.566 1.62396ZM366.817 152.443L367.8 152.922C359.904 169.14 352.687 181 342.305 189.917C331.911 198.844 318.445 204.74 298.202 209.248L297.965 208.181L297.727 207.114C317.786 202.647 330.865 196.862 340.881 188.259C350.91 179.645 357.968 168.124 365.835 151.965L366.817 152.443Z" fill="black"/>
<path d="M225.834 57.8305L225.378 58.8238C225.066 58.6807 224.84 58.3996 224.766 58.0647C224.693 57.7297 224.781 57.3796 225.004 57.1193L225.834 57.8305ZM294.686 8.69269L294.956 9.75174L294.686 8.69269ZM253.156 29.6779L252.617 28.7273L253.156 29.6779ZM230.205 67.6666L231.12 68.2651L228.876 71.6924L229.114 67.6031L230.205 67.6666ZM244.413 77.5026L245.083 78.3665L243.72 79.4222L243.346 77.7397L244.413 77.5026ZM295.779 77.5026L296.48 78.3412L295.965 78.7714L295.349 78.5071L295.779 77.5026ZM338.402 70.9452L339.311 71.5515L338.921 72.1373L338.226 72.0239L338.402 70.9452ZM364.631 73.131V74.2239H363.539V73.131H364.631ZM354.795 62.273L354.909 61.186L354.795 62.273ZM264.085 69.3398L264.068 68.2471L264.085 69.3398ZM337.309 148.541L336.4 147.935L336.769 147.381L337.43 147.455L337.309 148.541ZM309.987 143.076L310.186 142.002L310.64 142.086L310.896 142.47L309.987 143.076ZM326.38 152.155L326.326 153.247L326.38 152.155ZM291.408 141.983H290.315V140.977L291.318 140.894L291.408 141.983ZM256.435 163.841L255.473 163.323L256.107 162.146L257.135 163.002L256.435 163.841ZM277.062 163.841L277.582 164.803L277.062 163.841ZM246.599 171.492L245.573 171.114L245.818 170.45L246.524 170.401L246.599 171.492ZM241.134 176.956L240.457 177.814L238.619 176.362L240.912 175.886L241.134 176.956ZM328.566 1L329.192 1.89563C324.936 4.8723 318.404 6.26038 312.05 7.19972C308.854 7.67231 305.612 8.04166 302.68 8.42479C299.722 8.81127 297.072 9.2125 294.956 9.75174L294.686 8.69269L294.416 7.63365C296.672 7.05878 299.438 6.64397 302.397 6.25742C305.38 5.86754 308.555 5.50688 311.731 5.03743C318.121 4.09268 324.159 2.74852 327.94 0.104372L328.566 1ZM294.686 8.69269L294.956 9.75174C287.441 11.667 280.161 15.1554 273.226 19.0433C269.761 20.9861 266.395 23.0214 263.133 25.004C259.877 26.9831 256.719 28.9135 253.696 30.6285L253.156 29.6779L252.617 28.7273C255.605 27.0323 258.731 25.122 261.998 23.1362C265.259 21.154 268.655 19.1004 272.157 17.1368C279.157 13.212 286.631 9.61782 294.416 7.63365L294.686 8.69269ZM253.156 29.6779L253.696 30.6285C248.947 33.3225 243.857 38.3275 239.083 43.7035C234.283 49.1082 230.018 54.6282 226.664 58.5418L225.834 57.8305L225.004 57.1193C228.207 53.3826 232.685 47.6163 237.448 42.2522C242.237 36.8594 247.53 31.6133 252.617 28.7273L253.156 29.6779ZM225.834 57.8305L226.29 56.8373C228.173 57.7016 229.772 58.426 230.631 60.1241C231.05 60.9531 231.261 61.9401 231.349 63.1455C231.436 64.3509 231.406 65.8462 231.297 67.7301L230.205 67.6666L229.114 67.6031C229.223 65.7438 229.246 64.3635 229.169 63.3045C229.091 62.2456 228.918 61.5794 228.681 61.1106C228.227 60.2129 227.423 59.7624 225.378 58.8238L225.834 57.8305ZM230.205 67.6666L229.291 67.068C231.048 64.3837 232.856 62.7845 234.757 62.3545C236.752 61.9029 238.478 62.8081 239.839 64.2293C241.189 65.6389 242.319 67.683 243.242 69.935C244.172 72.2036 244.924 74.7615 245.48 77.2655L244.413 77.5026L243.346 77.7397C242.81 75.3257 242.092 72.8915 241.22 70.7641C240.341 68.6201 239.336 66.8644 238.26 65.7409C237.196 64.6289 236.206 64.2675 235.239 64.4863C234.177 64.7266 232.776 65.7348 231.12 68.2651L230.205 67.6666ZM295.779 77.5026L295.078 76.664C301.468 71.3238 306.995 68.7018 313.682 67.9074C320.288 67.1224 327.962 68.1341 338.578 69.8666L338.402 70.9452L338.226 72.0239C327.561 70.2834 320.191 69.3352 313.94 70.0779C307.769 70.811 302.626 73.2042 296.48 78.3412L295.779 77.5026ZM364.631 73.131V72.0381H377.746V73.131V74.2239H364.631V73.131ZM338.402 70.9452L337.493 70.339C339.815 66.8556 343.116 64.4673 346.323 63.0034C349.507 61.5497 352.711 60.9567 354.909 61.186L354.795 62.273L354.682 63.36C352.982 63.1826 350.176 63.647 347.23 64.9918C344.307 66.3263 341.361 68.4776 339.311 71.5515L338.402 70.9452ZM354.795 62.273L354.909 61.186C357.098 61.4145 359.786 62.282 361.947 64.1678C364.142 66.0836 365.724 68.9943 365.724 73.131H364.631H363.539C363.539 69.6175 362.223 67.31 360.509 65.8146C358.762 64.2894 356.531 63.553 354.682 63.36L354.795 62.273ZM244.413 77.5026L243.744 76.6387C250.29 71.5657 257.529 68.3482 264.068 68.2471L264.085 69.3398L264.102 70.4326C258.207 70.5237 251.418 73.4575 245.083 78.3665L244.413 77.5026ZM264.085 69.3398L264.068 68.2471C268.775 68.1743 274.912 69.4322 280.767 71.0874C286.645 72.7489 292.342 74.8407 296.21 76.4981L295.779 77.5026L295.349 78.5071C291.566 76.8859 285.958 74.826 280.172 73.1907C274.365 71.549 268.479 70.3649 264.102 70.4326L264.085 69.3398ZM366.817 151.819L366.697 152.906L337.188 149.627L337.309 148.541L337.43 147.455L366.938 150.733L366.817 151.819ZM337.309 148.541L338.218 149.147C336.917 151.099 334.802 152.153 332.664 152.704C330.516 153.257 328.211 153.341 326.326 153.247L326.38 152.155L326.434 151.064C328.192 151.151 330.259 151.067 332.118 150.587C333.987 150.105 335.515 149.261 336.4 147.935L337.309 148.541ZM326.38 152.155L326.326 153.247C321.738 153.019 313.703 150.621 309.077 143.683L309.987 143.076L310.896 142.47C315.014 148.646 322.28 150.857 326.434 151.064L326.38 152.155ZM309.987 143.076L309.788 144.151C302.005 142.712 298.066 142.532 291.497 143.073L291.408 141.983L291.318 140.894C298.097 140.336 302.23 140.53 310.186 142.002L309.987 143.076ZM291.408 141.983H292.5C292.5 154.614 283.419 161.652 277.582 164.803L277.062 163.841L276.543 162.88C282.134 159.861 290.315 153.396 290.315 141.983H291.408ZM277.062 163.841L277.582 164.803C274.882 166.26 271.219 167.69 267.345 168.037C263.453 168.386 259.291 167.644 255.735 164.681L256.435 163.841L257.135 163.002C260.136 165.503 263.674 166.172 267.15 165.86C270.643 165.547 274.015 164.244 276.543 162.88L277.062 163.841ZM256.435 163.841L257.397 164.36C255.932 167.077 254.604 169.074 252.936 170.416C251.223 171.795 249.252 172.405 246.674 172.582L246.599 171.492L246.524 170.401C248.813 170.244 250.306 169.727 251.566 168.713C252.872 167.663 254.029 166.001 255.473 163.323L256.435 163.841ZM246.599 171.492L247.625 171.869C247.06 173.404 246.517 174.781 245.58 175.842C244.596 176.957 243.273 177.628 241.357 178.026L241.134 176.956L240.912 175.886C242.53 175.55 243.365 175.049 243.942 174.395C244.567 173.687 244.99 172.699 245.573 171.114L246.599 171.492ZM241.134 176.956L241.812 176.098C259.303 189.907 272.09 196.367 298.36 206.538L297.965 207.557L297.57 208.576C271.188 198.361 258.182 191.807 240.457 177.814L241.134 176.956Z" fill="black"/>
</svg>
